<svg width="20" height="21" viewBox="0 0 20 21" fill="none" xmlns="http://www.w3.org/2000/svg">
<g id="fi_17520453" clip-path="url(#clip0_2027_478)">
<path id="Vector" d="M16.681 5.06181C15.4498 2.48056 12.9123 0.849312 10.056 0.811812C7.19355 0.774312 4.65605 2.34931 3.38105 4.93681C2.05605 7.61806 2.36855 10.7243 4.20605 13.0556L8.9498 19.0806C9.19355 19.3868 9.55605 19.5618 9.94355 19.5618C10.331 19.5618 10.6935 19.3868 10.9373 19.0806L15.806 12.8931C17.5748 10.6431 17.906 7.64931 16.681 5.06806V5.06181ZM14.831 12.1181L9.9373 18.3056L5.19355 12.2806C3.6623 10.3368 3.3998 7.73056 4.50605 5.49306C5.56855 3.34306 7.5998 2.06806 9.9498 2.06806H10.0435C12.456 2.10556 14.5185 3.42431 15.556 5.60556C16.5935 7.78681 16.3248 10.2181 14.831 12.1181Z" fill="white"/>
<path id="Vector_2" d="M9.94375 4.66174C8.0625 4.66174 6.53125 6.19299 6.53125 8.07424C6.53125 9.95549 8.0625 11.4867 9.94375 11.4867C11.825 11.4867 13.3563 9.95549 13.3563 8.07424C13.3563 6.19299 11.825 4.66174 9.94375 4.66174ZM9.94375 10.2305C8.75 10.2305 7.78125 9.26174 7.78125 8.06799C7.78125 6.87424 8.75 5.90549 9.94375 5.90549C11.1375 5.90549 12.1063 6.87424 12.1063 8.06799C12.1063 9.26174 11.1375 10.2305 9.94375 10.2305Z" fill="white"/>
</g>
<defs>
<clipPath id="clip0_2027_478">
<rect width="20" height="20" fill="white" transform="translate(0 0.186768)"/>
</clipPath>
</defs>
</svg>
