<svg width="20" height="21" viewBox="0 0 20 21" fill="none" xmlns="http://www.w3.org/2000/svg">
<g id="fi_3059457" clip-path="url(#clip0_2027_486)">
<path id="Vector" d="M18.7719 15.0807C18.7388 15.0532 14.9913 12.387 13.9794 12.5501C13.4913 12.6363 13.2125 12.9695 12.6531 13.6357C12.5631 13.7432 12.3462 14.0001 12.1788 14.1832C11.8252 14.068 11.4804 13.9277 11.1469 13.7632C9.42533 12.9251 8.03437 11.5341 7.19625 9.8126C7.03179 9.47911 6.89143 9.13427 6.77625 8.78072C6.96 8.6126 7.2175 8.39572 7.3275 8.30322C7.99062 7.74697 8.32312 7.4676 8.40938 6.97885C8.58625 5.96697 5.90625 2.22072 5.87875 2.18697C5.7567 2.01388 5.59775 1.87005 5.41336 1.76586C5.22897 1.66167 5.02374 1.59971 4.8125 1.58447C3.72625 1.58447 0.625 5.60697 0.625 6.2851C0.625 6.32447 0.681875 10.327 5.6175 15.3476C10.6325 20.2776 14.635 20.3345 14.6744 20.3345C15.3519 20.3345 19.375 17.2332 19.375 16.147C19.3596 15.9357 19.2975 15.7305 19.1932 15.5461C19.0889 15.3617 18.945 15.2028 18.7719 15.0807ZM14.605 19.0807C14.0625 19.0345 10.7 18.5913 6.5 14.4657C2.35437 10.2451 1.9225 6.87697 1.87937 6.3551C2.69861 5.06925 3.68799 3.90011 4.82062 2.87947C4.84562 2.90447 4.87875 2.94197 4.92125 2.99072C5.78989 4.17649 6.53817 5.44589 7.155 6.7801C6.95441 6.98189 6.7424 7.172 6.52 7.34947C6.17512 7.61225 5.85843 7.9101 5.575 8.23822C5.52704 8.30551 5.4929 8.38164 5.47456 8.46221C5.45621 8.54278 5.45403 8.62618 5.46812 8.7076C5.60039 9.28055 5.80297 9.83496 6.07125 10.3582C7.03243 12.332 8.62735 13.9267 10.6012 14.8876C11.1244 15.1563 11.6788 15.3591 12.2519 15.4913C12.3333 15.5058 12.4168 15.5037 12.4974 15.4854C12.578 15.467 12.6541 15.4327 12.7213 15.3845C13.0505 15.0999 13.3494 14.7819 13.6131 14.4357C13.8094 14.202 14.0712 13.8901 14.1706 13.802C15.5082 14.4182 16.7805 15.1674 17.9681 16.0382C18.02 16.082 18.0569 16.1157 18.0812 16.1376C17.0606 17.2706 15.8912 18.2602 14.605 19.0795V19.0807Z" fill="white"/>
<path id="Vector_2" d="M14.375 10.3345H15.625C15.6235 9.00885 15.0962 7.73794 14.1589 6.80058C13.2215 5.86322 11.9506 5.33596 10.625 5.33447V6.58447C11.6193 6.58547 12.5725 6.98087 13.2756 7.68392C13.9786 8.38696 14.374 9.34022 14.375 10.3345Z" fill="white"/>
<path id="Vector_3" d="M17.5 10.3345H18.75C18.7475 8.18035 17.8907 6.11517 16.3675 4.59197C14.8443 3.06877 12.7791 2.21195 10.625 2.20947V3.45947C12.4477 3.46162 14.1951 4.18664 15.484 5.47549C16.7728 6.76434 17.4978 8.51177 17.5 10.3345Z" fill="white"/>
</g>
<defs>
<clipPath id="clip0_2027_486">
<rect width="20" height="20" fill="white" transform="translate(0 0.959473)"/>
</clipPath>
</defs>
</svg>
