<svg width="23" height="24" viewBox="0 0 23 24" fill="none" xmlns="http://www.w3.org/2000/svg">
<g id="time-management 1">
<g id="Icon">
<path id="path3" fill-rule="evenodd" clip-rule="evenodd" d="M10.7812 2.86255C10.781 3.34959 10.7813 3.84276 10.782 4.32736C5.95988 4.69464 2.15625 8.72899 2.15625 13.6438C2.15625 18.8008 6.34297 22.9875 11.5 22.9875C16.657 22.9875 20.8438 18.8008 20.8438 13.6438C20.8438 8.72899 17.0401 4.69464 12.218 4.32736C12.2197 3.842 12.2188 3.35011 12.2188 2.86255H14.375C14.7718 2.86255 15.0938 2.54055 15.0938 2.1438C15.0938 1.74705 14.7718 1.42505 14.375 1.42505H8.625C8.22825 1.42505 7.90625 1.74705 7.90625 2.1438C7.90625 2.54055 8.22825 2.86255 8.625 2.86255H10.7812ZM11.5 5.73755C15.8635 5.73755 19.4062 9.28027 19.4062 13.6438C19.4062 18.0073 15.8635 21.55 11.5 21.55C7.13647 21.55 3.59375 18.0073 3.59375 13.6438C3.59375 9.28027 7.13647 5.73755 11.5 5.73755ZM11.0062 14.19C11.311 14.4397 11.5761 14.4418 11.8702 14.2684L14.1335 12.9179C14.4742 12.7145 14.5856 12.2724 14.3829 11.9325C14.1795 11.5918 13.7375 11.4796 13.3968 11.683L11.5697 12.7734L7.97309 9.62886C7.67409 9.36795 7.21984 9.39886 6.95894 9.69714C6.69731 9.99614 6.72822 10.4504 7.0265 10.7113L11.0062 14.19Z" fill="white"/>
</g>
</g>
</svg>
