<svg width="32" height="32" viewBox="0 0 32 32" fill="none" xmlns="http://www.w3.org/2000/svg">
<g id="fast 1" clip-path="url(#clip0_4001_77)">
<path id="Vector" d="M8.66732 25.3333H6.00065C5.63265 25.3333 5.33398 25.0347 5.33398 24.6667C5.33398 24.2987 5.63265 24 6.00065 24H8.66732C9.03532 24 9.33398 24.2987 9.33398 24.6667C9.33398 25.0347 9.03532 25.3333 8.66732 25.3333Z" fill="white"/>
<path id="Vector_2" d="M30.3341 25.333H28.6674C28.2994 25.333 28.0007 25.0343 28.0007 24.6663C28.0007 24.2983 28.2994 23.9997 28.6674 23.9997H29.7807L30.6794 19.2103C30.6674 16.7597 28.5741 14.6663 26.0007 14.6663H21.6234L19.5021 23.9997H23.3341C23.7021 23.9997 24.0007 24.2983 24.0007 24.6663C24.0007 25.0343 23.7021 25.333 23.3341 25.333H18.6674C18.4647 25.333 18.2727 25.241 18.1461 25.0823C18.0194 24.925 17.9714 24.717 18.0167 24.5197L20.4407 13.853C20.5101 13.5477 20.7794 13.333 21.0914 13.333H26.0007C29.3087 13.333 32.0007 16.025 32.0007 19.333L30.9887 24.789C30.9301 25.105 30.6554 25.333 30.3341 25.333Z" fill="white"/>
<path id="Vector_3" d="M25.9993 27.9997C24.162 27.9997 22.666 26.505 22.666 24.6663C22.666 22.8277 24.162 21.333 25.9993 21.333C27.8367 21.333 29.3327 22.8277 29.3327 24.6663C29.3327 26.505 27.8367 27.9997 25.9993 27.9997ZM25.9993 22.6663C24.8967 22.6663 23.9993 23.5637 23.9993 24.6663C23.9993 25.769 24.8967 26.6663 25.9993 26.6663C27.102 26.6663 27.9993 25.769 27.9993 24.6663C27.9993 23.5637 27.102 22.6663 25.9993 22.6663Z" fill="white"/>
<path id="Vector_4" d="M11.3333 27.9997C9.496 27.9997 8 26.505 8 24.6663C8 22.8277 9.496 21.333 11.3333 21.333C13.1707 21.333 14.6667 22.8277 14.6667 24.6663C14.6667 26.505 13.1707 27.9997 11.3333 27.9997ZM11.3333 22.6663C10.2307 22.6663 9.33333 23.5637 9.33333 24.6663C9.33333 25.769 10.2307 26.6663 11.3333 26.6663C12.436 26.6663 13.3333 25.769 13.3333 24.6663C13.3333 23.5637 12.436 22.6663 11.3333 22.6663Z" fill="white"/>
<path id="Vector_5" d="M8.66602 13.3333H3.33268C2.96468 13.3333 2.66602 13.0347 2.66602 12.6667C2.66602 12.2987 2.96468 12 3.33268 12H8.66602C9.03402 12 9.33268 12.2987 9.33268 12.6667C9.33268 13.0347 9.03402 13.3333 8.66602 13.3333Z" fill="white"/>
<path id="Vector_6" d="M8.66732 17.3333H2.00065C1.63265 17.3333 1.33398 17.0347 1.33398 16.6667C1.33398 16.2987 1.63265 16 2.00065 16H8.66732C9.03532 16 9.33398 16.2987 9.33398 16.6667C9.33398 17.0347 9.03532 17.3333 8.66732 17.3333Z" fill="white"/>
<path id="Vector_7" d="M8.66667 21.3333H0.666667C0.298667 21.3333 0 21.0347 0 20.6667C0 20.2987 0.298667 20 0.666667 20H8.66667C9.03467 20 9.33333 20.2987 9.33333 20.6667C9.33333 21.0347 9.03467 21.3333 8.66667 21.3333Z" fill="white"/>
<path id="Vector_8" d="M18.6673 25.333H14.0007C13.6327 25.333 13.334 25.0343 13.334 24.6663C13.334 24.2983 13.6327 23.9997 14.0007 23.9997H18.1353L21.1647 10.6663H6.00065C5.63265 10.6663 5.33398 10.3677 5.33398 9.99967C5.33398 9.63167 5.63265 9.33301 6.00065 9.33301H22.0007C22.2033 9.33301 22.3953 9.42501 22.522 9.58367C22.6487 9.74101 22.6967 9.94901 22.6513 10.1463L19.318 24.813C19.2487 25.1183 18.978 25.333 18.6673 25.333Z" fill="white"/>
</g>
<defs>
<clipPath id="clip0_4001_77">
<rect width="32" height="32" fill="white"/>
</clipPath>
</defs>
</svg>
