<svg width="32" height="32" viewBox="0 0 32 32" fill="none" xmlns="http://www.w3.org/2000/svg">
<g id="medal 1" clip-path="url(#clip0_4001_65)">
<g id="Group">
<path id="Vector" d="M24.4218 21.226C26.8001 18.9839 28.2873 15.8064 28.2873 12.2877C28.2873 9.48699 27.3695 6.84911 25.633 4.65924C23.9486 2.53499 21.5798 1.00824 18.963 0.360236C18.6281 0.277424 18.289 0.481611 18.206 0.816674C18.1231 1.15174 18.3274 1.49061 18.6625 1.57355C23.5934 2.79461 27.0372 7.20042 27.0372 12.2876C27.0372 18.3735 22.086 23.3248 16 23.3248C9.91408 23.3248 4.96289 18.3736 4.96289 12.2877C4.96289 7.20049 8.4067 2.79467 13.3376 1.57361C13.6726 1.49067 13.877 1.1518 13.794 0.816736C13.7111 0.481674 13.3723 0.277236 13.0371 0.360299C10.4203 1.00836 8.05145 2.53511 6.36714 4.65936C4.6307 6.84924 3.71289 9.48711 3.71289 12.2877C3.71289 15.8064 5.20008 18.984 7.57833 21.226L4.3062 27.484C4.14664 27.7892 4.26402 28.1659 4.56864 28.3265L4.59114 28.3384C4.73095 28.412 4.89333 28.4299 5.04589 28.3887L9.58077 27.161L11.1609 31.5857C11.2444 31.8195 11.4585 31.9817 11.7061 31.999C11.7207 32 11.7352 32.0005 11.7496 32.0005C11.981 32.0005 12.195 31.8722 12.3033 31.6651L16.0001 24.595L19.6968 31.665C19.8051 31.8722 20.0191 32.0005 20.2505 32.0004C20.2649 32.0004 20.2795 31.9999 20.294 31.9989C20.5417 31.9817 20.7558 31.8194 20.8393 31.5856L22.4194 27.1609L26.9543 28.3887C27.1068 28.43 27.2693 28.412 27.409 28.3383L27.4315 28.3264C27.7361 28.1659 27.8535 27.7891 27.694 27.4839L24.4218 21.226ZM11.8576 29.8199L10.5636 26.1965C10.454 25.8894 10.1265 25.7182 9.8117 25.8035L6.06508 26.8179L8.55514 22.0555C10.2826 23.3754 12.3686 24.2479 14.6396 24.4992L11.8576 29.8199ZM22.1884 25.8035C21.8736 25.7183 21.5461 25.8894 21.4365 26.1965L20.1426 29.8199L17.3605 24.4992C19.6315 24.2479 21.7175 23.3754 23.445 22.0555L25.935 26.8179L22.1884 25.8035Z" fill="white"/>
<path id="Vector_2" d="M6.83789 12.2872C6.83789 17.3392 10.948 21.4494 16.0001 21.4494C21.0521 21.4494 25.1623 17.3393 25.1623 12.2872C25.1623 7.23513 21.0521 3.125 16.0001 3.125C10.9481 3.125 6.83789 7.23513 6.83789 12.2872ZM23.9123 12.2872C23.9123 16.65 20.3629 20.1994 16.0001 20.1994C11.6373 20.1994 8.08789 16.65 8.08789 12.2872C8.08789 7.92438 11.6373 4.375 16.0001 4.375C20.3629 4.375 23.9123 7.92438 23.9123 12.2872Z" fill="white"/>
<path id="Vector_3" d="M15.0558 8.32022L14.2826 9.81422C14.1924 9.98859 14.0229 10.1117 13.8293 10.1437L12.1694 10.4173C11.776 10.4822 11.455 10.7581 11.3318 11.1373C11.2085 11.5166 11.306 11.9285 11.5862 12.2122L12.7682 13.4092C12.9061 13.5489 12.9709 13.7482 12.9413 13.9422L12.6887 15.6054C12.6288 15.9997 12.792 16.3902 13.1146 16.6246C13.4372 16.859 13.859 16.8935 14.2155 16.7147L15.7193 15.9605C15.8946 15.8725 16.1041 15.8725 16.2796 15.9605L17.7833 16.7147C17.9348 16.7907 18.098 16.8281 18.2603 16.8281C18.4802 16.8281 18.6986 16.7594 18.8842 16.6246C19.2068 16.3902 19.37 15.9997 19.3101 15.6055L19.0575 13.9423C19.028 13.7482 19.0928 13.5489 19.2307 13.4093L20.4127 12.2123C20.6929 11.9285 20.7904 11.5167 20.6671 11.1374C20.5439 10.7582 20.223 10.4823 19.8295 10.4174L18.1697 10.1437C17.976 10.1118 17.8065 9.98866 17.7163 9.81428L16.9431 8.32028C16.7598 7.96609 16.3982 7.74609 15.9995 7.74609C15.6006 7.74603 15.2391 7.96603 15.0558 8.32022ZM17.9663 11.377L19.2686 11.5918L18.3412 12.531C17.9275 12.9501 17.7332 13.5478 17.8216 14.13L18.0198 15.435L16.84 14.8432C16.5768 14.7112 16.2881 14.6452 15.9993 14.6452C15.7106 14.6452 15.4218 14.7112 15.1587 14.8432L13.9789 15.435L14.1771 14.13C14.2655 13.5478 14.0713 12.9501 13.6575 12.531L12.7301 11.5918L14.0325 11.377C14.6135 11.2812 15.1219 10.9118 15.3926 10.3888L15.9995 9.21653L16.6061 10.3888C16.8768 10.9117 17.3853 11.2812 17.9663 11.377Z" fill="white"/>
<path id="Vector_4" d="M16 1.25C16.3452 1.25 16.625 0.970178 16.625 0.625C16.625 0.279822 16.3452 0 16 0C15.6548 0 15.375 0.279822 15.375 0.625C15.375 0.970178 15.6548 1.25 16 1.25Z" fill="white"/>
</g>
</g>
<defs>
<clipPath id="clip0_4001_65">
<rect width="32" height="32" fill="white"/>
</clipPath>
</defs>
</svg>
