<svg width="36" height="29" viewBox="0 0 36 29" fill="none" xmlns="http://www.w3.org/2000/svg">
<path d="M8.59045 28.4841C6.93264 28.4841 5.57626 28.145 4.52129 27.4668C3.46632 26.7886 2.59974 25.9221 1.92155 24.8671C1.168 23.5861 0.640516 22.2674 0.339097 20.911C0.113032 19.4792 0 18.3112 0 17.407C0 13.7146 0.941935 10.3613 2.82581 7.3471C4.70968 4.33291 7.64851 1.88387 11.6423 0L12.6596 2.03458C10.3236 3.01419 8.28903 4.55897 6.55587 6.6689C4.89806 8.77884 4.06916 10.9265 4.06916 13.1117C4.06916 14.016 4.18219 14.8072 4.40826 15.4854C5.61393 14.5058 7.008 14.016 8.59045 14.016C10.5497 14.016 12.2452 14.6565 13.6769 15.9375C15.1086 17.2186 15.8245 18.9894 15.8245 21.2501C15.8245 23.36 15.1086 25.0932 13.6769 26.4495C12.2452 27.8059 10.5497 28.4841 8.59045 28.4841ZM27.8059 28.4841C26.1481 28.4841 24.7917 28.145 23.7368 27.4668C22.6818 26.7886 21.8152 25.9221 21.137 24.8671C20.3835 23.5861 19.856 22.2674 19.5546 20.911C19.3285 19.4792 19.2155 18.3112 19.2155 17.407C19.2155 13.7146 20.1574 10.3613 22.0413 7.3471C23.9252 4.33291 26.864 1.88387 30.8578 0L31.8751 2.03458C29.5391 3.01419 27.5045 4.55897 25.7714 6.6689C24.1135 8.77884 23.2846 10.9265 23.2846 13.1117C23.2846 14.016 23.3977 14.8072 23.6237 15.4854C24.8294 14.5058 26.2235 14.016 27.8059 14.016C29.7652 14.016 31.4606 14.6565 32.8924 15.9375C34.3241 17.2186 35.04 18.9894 35.04 21.2501C35.04 23.36 34.3241 25.0932 32.8924 26.4495C31.4606 27.8059 29.7652 28.4841 27.8059 28.4841Z" fill="#C86011" fill-opacity="0.2"/>
</svg>
