<svg width="20" height="22" viewBox="0 0 20 22" fill="none" xmlns="http://www.w3.org/2000/svg">
<path d="M2.64528 9.02001C2.68215 8.56058 2.89072 8.1319 3.22945 7.81933C3.56818 7.50676 4.01221 7.33325 4.47311 7.33334H15.5263C15.9872 7.33325 16.4312 7.50676 16.7699 7.81933C17.1087 8.1319 17.3172 8.56058 17.3541 9.02001L18.0902 18.1867C18.1104 18.4389 18.0782 18.6927 17.9956 18.9319C17.913 19.1711 17.7818 19.3906 17.6101 19.5766C17.4385 19.7626 17.2303 19.911 16.9985 20.0126C16.7667 20.1141 16.5164 20.1666 16.2633 20.1667H3.73611C3.48304 20.1666 3.23273 20.1141 3.00093 20.0126C2.76913 19.911 2.56087 19.7626 2.38925 19.5766C2.21764 19.3906 2.08639 19.1711 2.00377 18.9319C1.92115 18.6927 1.88895 18.4389 1.9092 18.1867L2.64528 9.02001V9.02001Z" stroke="#1D1613" stroke-width="2" stroke-linecap="round" stroke-linejoin="round"/>
<path d="M13.6663 10.0833V5.50001C13.6663 4.52755 13.28 3.59492 12.5924 2.90729C11.9048 2.21965 10.9721 1.83334 9.99967 1.83334C9.02721 1.83334 8.09458 2.21965 7.40695 2.90729C6.71932 3.59492 6.33301 4.52755 6.33301 5.50001V10.0833" stroke="#1D1613" stroke-width="2" stroke-linecap="round" stroke-linejoin="round"/>
</svg>
