<svg width="32" height="32" viewBox="0 0 32 32" fill="none" xmlns="http://www.w3.org/2000/svg">
<path d="M28.6718 26.3886L27.2427 8.38138C27.1536 7.22125 26.1725 6.31244 25.009 6.31244H22.1863V6.18556C22.1863 2.77481 19.4115 0 16.0008 0C12.59 0 9.8152 2.77481 9.8152 6.18556V6.31244H6.99257C5.82901 6.31244 4.84782 7.22119 4.75907 8.37894L3.32957 26.3911C3.21895 27.8333 3.71926 29.2691 4.70214 30.3302C5.68501 31.3913 7.07832 32 8.52476 32H23.4767C24.9231 32 26.3165 31.3914 27.2994 30.3302C28.2823 29.269 28.7825 27.8333 28.6718 26.3886ZM11.6896 6.18556C11.6896 3.80838 13.6236 1.87437 16.0008 1.87437C18.3779 1.87437 20.312 3.80844 20.312 6.18556V6.31244H11.6896V6.18556ZM25.9242 29.0566C25.2856 29.7459 24.4165 30.1256 23.4767 30.1256H8.52482C7.58507 30.1256 6.71595 29.7459 6.07732 29.0566C5.43876 28.3671 5.12664 27.4714 5.19839 26.5369L6.62776 8.52469C6.64226 8.33519 6.80251 8.18681 6.99257 8.18681H9.8152V10.4952C9.8152 11.0128 10.2348 11.4324 10.7524 11.4324C11.2699 11.4324 11.6896 11.0128 11.6896 10.4952V8.18681H20.312V10.4952C20.312 11.0128 20.7316 11.4324 21.2491 11.4324C21.7667 11.4324 22.1863 11.0128 22.1863 10.4952V8.18681H25.009C25.199 8.18681 25.3593 8.33525 25.374 8.52719L26.8031 26.5344C26.875 27.4714 26.5628 28.3671 25.9242 29.0566Z" fill="white"/>
<path d="M20.2229 15.8927C19.857 15.5267 19.2636 15.5267 18.8977 15.8927L14.7129 20.0774L13.1038 18.4683C12.7378 18.1023 12.1444 18.1023 11.7784 18.4683C11.4124 18.8343 11.4124 19.4277 11.7784 19.7937L14.0502 22.0655C14.2332 22.2485 14.4731 22.34 14.7128 22.34C14.9526 22.34 15.1925 22.2485 15.3755 22.0655L20.2228 17.2181C20.5889 16.852 20.5889 16.2587 20.2229 15.8927Z" fill="white"/>
</svg>
