<svg width="40" height="40" viewBox="0 0 40 40" fill="none" xmlns="http://www.w3.org/2000/svg">
<g id="fi_992700" clip-path="url(#clip0_4013_3299)">
<g id="Group">
<g id="Group_2">
<path id="Vector" d="M27.1267 23.5318L21.5496 19.349V10.8285C21.5496 9.9718 20.8571 9.2793 20.0004 9.2793C19.1437 9.2793 18.4512 9.9718 18.4512 10.8285V20.1237C18.4512 20.6116 18.6805 21.0718 19.0709 21.363L25.2676 26.0106C25.5464 26.2198 25.8718 26.3205 26.1955 26.3205C26.668 26.3205 27.1328 26.1082 27.4365 25.6992C27.9509 25.0159 27.8115 24.0446 27.1267 23.5318Z" fill="#C86011"/>
</g>
</g>
<g id="Group_3">
<g id="Group_4">
<path id="Vector_2" d="M20 0C8.97133 0 0 8.97133 0 20C0 31.0287 8.97133 40 20 40C31.0287 40 40 31.0287 40 20C40 8.97133 31.0287 0 20 0ZM20 36.9016C10.6816 36.9016 3.09836 29.3184 3.09836 20C3.09836 10.6816 10.6816 3.09836 20 3.09836C29.3199 3.09836 36.9016 10.6816 36.9016 20C36.9016 29.3184 29.3184 36.9016 20 36.9016Z" fill="#C86011"/>
</g>
</g>
</g>
<defs>
<clipPath id="clip0_4013_3299">
<rect width="40" height="40" fill="white"/>
</clipPath>
</defs>
</svg>
